<svg xmlns="http://www.w3.org/2000/svg" width="157" height="202" fill="none" viewBox="0 0 157 202"><ellipse cx="78.25" cy="79.045" fill="#F1F1F1" rx="78.25" ry="78.087"/><rect width="76.79" height="107.223" x=".955" y="1.042" fill="#EEE" stroke="#999" stroke-width="2" rx="7" transform="matrix(0.999144 0.0435326 -0.0437063 0.998952 46.5532 76.2746)"/><rect width="80.794" height="111.216" x="-1.122" y="-.861" fill="#FAFAFA" stroke="#999" stroke-width="2" rx="9" transform="matrix(0.99148 -0.130259 0.130794 0.991409 3.34013 71.8385)"/><path fill="#EEE" d="M4.28366 79.9233C3.70577 75.543 6.78851 71.5255 11.1691 70.95L73.4285 62.7705C77.8092 62.195 81.8289 65.2794 82.4067 69.6597L84.6459 86.6324L6.52282 96.896L4.28366 79.9233Z"/><rect width="3.276" height="10.944" fill="#999" rx="1.638" transform="matrix(0.130794 0.991409 -0.99148 0.130259 98.3501 65.004)"/><rect width="3.283" height="10.922" fill="#999" rx="1.642" transform="matrix(0.99148 -0.130259 0.130794 0.991409 68.3669 46.9121)"/><rect width="3.28" height="10.933" fill="#999" rx="1.64" transform="matrix(0.794181 0.608126 -0.609396 0.792525 87.604 49.8925)"/><rect width="63.473" height="4.369" fill="#DCDCDC" rx="2" transform="matrix(0.99148 -0.130259 0.130794 0.991409 14.6892 100.229)"/><rect width="63.473" height="4.369" fill="#DCDCDC" rx="2" transform="matrix(0.99148 -0.130259 0.130794 0.991409 17.5464 121.885)"/><rect width="63.473" height="4.369" fill="#DCDCDC" rx="2" transform="matrix(0.99148 -0.130259 0.130794 0.991409 20.4033 143.54)"/><rect width="22.982" height="4.369" fill="#EEE" rx="2" transform="matrix(0.99148 -0.130259 0.130794 0.991409 15.832 108.891)"/><rect width="22.982" height="4.369" fill="#EEE" rx="2" transform="matrix(0.99148 -0.130259 0.130794 0.991409 18.689 130.547)"/><rect width="22.982" height="4.369" fill="#EEE" rx="2" transform="matrix(0.99148 -0.130259 0.130794 0.991409 21.5461 152.203)"/></svg>